<?xml version="1.0" ?>

<!-- Uploaded to: SVG Repo, www.svgrepo.com, Generator: SVG Repo Mixer Tools -->
<svg width="800px" height="800px" viewBox="0 0 32 32" id="svg5" version="1.1" xmlns="http://www.w3.org/2000/svg" xmlns:svg="http://www.w3.org/2000/svg">

<defs id="defs2"/>

<g id="layer1" transform="translate(36,-100)">

<path d="m -27.90625,115.75977 a 1,1 0 0 0 -0.605469,0.46679 L -33.865234,125.5 a 1.0001,1.0001 0 0 0 1.123047,1.4668 l 3.132812,-0.83985 0.837891,3.13086 A 1.0001,1.0001 0 0 0 -26.939453,129.5 L -22.03125,121 A 1,1 0 0 0 -22.396484,119.63477 1,1 0 0 0 -23.761719,120 l -3.701172,6.41016 -0.472656,-1.76563 a 1.0001,1.0001 0 0 0 -1.224609,-0.70898 l -1.767578,0.47265 4.146484,-7.18164 a 1,1 0 0 0 -0.365234,-1.36523 1,1 0 0 0 -0.759766,-0.10156 z" id="rect5129" style="color:#FFFFFF;fill:#FFFFFF;fill-rule:evenodd;stroke-linecap:round;stroke-linejoin:round;stroke-miterlimit:4.1;-inkscape-stroke:none"/>

<path d="m -12.853516,115.86133 a 1,1 0 0 0 -0.365234,1.36523 l 4.1464844,7.18164 -1.7675784,-0.47265 a 1.0001,1.0001 0 0 0 -1.224609,0.70898 l -0.472656,1.76563 L -16.238281,120 A 1,1 0 0 0 -17.603516,119.63477 1,1 0 0 0 -17.96875,121 l 4.908203,8.5 a 1.0001,1.0001 0 0 0 1.832031,-0.24219 l 0.837891,-3.13086 3.1328125,0.83985 A 1.0001,1.0001 0 0 0 -6.1347656,125.5 l -5.3535154,-9.27344 a 1,1 0 0 0 -1.365235,-0.36523 z" id="path5307" style="color:#FFFFFF;fill:#FFFFFF;fill-rule:evenodd;stroke-linecap:round;stroke-linejoin:round;stroke-miterlimit:4.1;-inkscape-stroke:none"/>

<path d="m -20,102 c -5.510997,0 -10,4.489 -10,10 0,5.511 4.489003,10 10,10 5.510997,0 10,-4.489 10,-10 0,-5.511 -4.489003,-10 -10,-10 z m 0,2 c 4.430118,0 8,3.56988 8,8 0,4.43012 -3.569882,8 -8,8 -4.430118,0 -8,-3.56988 -8,-8 0,-4.43012 3.569882,-8 8,-8 z" id="path5328" style="color:#FFFFFF;fill:#FFFFFF;fill-rule:evenodd;stroke-linecap:round;stroke-linejoin:round;stroke-miterlimit:4.1;-inkscape-stroke:none"/>

<path d="m 20.46875,46.976562 a 1.4057056,1.4057056 0 0 0 -1.019531,0.121094 L 16,48.949219 12.550781,47.097656 a 1.4057056,1.4057056 0 0 0 -2.048828,1.488281 l 0.695313,3.853516 -2.8261722,2.708984 a 1.4057056,1.4057056 0 0 0 0.78125,2.408204 l 3.8789062,0.529296 1.703125,3.525391 a 1.4057056,1.4057056 0 0 0 2.53125,0 l 1.703125,-3.525391 3.878906,-0.529296 a 1.4057056,1.4057056 0 0 0 0.78125,-2.408204 l -2.826172,-2.708984 0.695313,-3.853516 A 1.4057056,1.4057056 0 0 0 20.46875,46.976562 Z m -6.683594,3.97461 1.550782,0.832031 a 1.4057056,1.4057056 0 0 0 1.328124,0 l 1.550782,-0.832031 -0.3125,1.732422 a 1.4057056,1.4057056 0 0 0 0.410156,1.263672 l 1.269531,1.216796 -1.742187,0.238282 a 1.4057056,1.4057056 0 0 0 -1.074219,0.78125 L 16,57.769531 15.234375,56.183594 a 1.4057056,1.4057056 0 0 0 -1.074219,-0.78125 L 12.417969,55.164062 13.6875,53.947266 a 1.4057056,1.4057056 0 0 0 0.410156,-1.263672 z" id="path5315" style="color:#FFFFFF;fill:#FFFFFF;fill-rule:evenodd;stroke-linecap:round;stroke-linejoin:round;stroke-miterlimit:4.1;-inkscape-stroke:none" transform="matrix(-0.71241158,0,0,-0.71050546,-8.6014173,150.8422)"/>

</g>

</svg>